# xmcd CD database file
#
# Track frame offsets:
#	150
#	17477
#	33225
#	48454
#	63210
#	79309
#	96132
#	111940
#	128930
#	146771
#	167747
#	187955
#
# Disc length: 2766 seconds
#
# Revision: 1
# Processed by: cddbd v1.5.2PL0 Copyright (c) Steve Scherf et al.
# Submitted via: CDex 1.51
#
DISCID=9d0acc0c
DTITLE=Jason Michael Carroll - Numbers
DYEAR=2011
DGENRE=Country
TTITLE0=This Is For The Lonely
TTITLE1=Numbers
TTITLE2=Ray Of Hope
TTITLE3=Meet Me In The Barn
TTITLE4=Hell Or Hallelujah
TTITLE5=Can I Get An Amen 
TTITLE6=My Favorite
TTITLE7=Don't Know Why I Don't
TTITLE8=Let Me
TTITLE9=Stray 
TTITLE10=Last Word
TTITLE11=Alyssa Lies
EXTD=YEAR: 2011
EXTT0=
EXTT1=
EXTT2=
EXTT3=
EXTT4=
EXTT5=
EXTT6=
EXTT7=
EXTT8=
EXTT9=
EXTT10=
EXTT11=
PLAYORDER=
